<?xml version="1.0" encoding="utf-8"?>
<!-- Generator: Adobe Illustrator 18.1.0, SVG Export Plug-In . SVG Version: 6.00 Build 0)  -->
<!DOCTYPE svg PUBLIC "-//W3C//DTD SVG 1.1//EN" "http://www.w3.org/Graphics/SVG/1.1/DTD/svg11.dtd">
<svg version="1.1" id="Layer_1" xmlns="http://www.w3.org/2000/svg" xmlns:xlink="http://www.w3.org/1999/xlink" x="0px" y="0px"
	 viewBox="0 0 30 28" enable-background="new 0 0 30 28" xml:space="preserve">
<g>
	<path d="M26.4,13.5L30,0H0v2.3h4.6l0,10h0v7.5h20.8v-2.3H7v-4.1H26.4z M26.9,2.3l-2.4,8.9H7l0-8.9H26.9z"/>
	<path d="M8.2,21.4c-1.9,0-3.4,1.5-3.4,3.3S6.4,28,8.2,28s3.4-1.5,3.4-3.3S10.1,21.4,8.2,21.4z M8.2,26.1c-0.8,0-1.4-0.6-1.4-1.4
		c0-0.7,0.6-1.4,1.4-1.4s1.4,0.6,1.4,1.4C9.6,25.5,9,26.1,8.2,26.1z"/>
	<path d="M21.7,21.4c-1.9,0-3.4,1.5-3.4,3.3s1.5,3.3,3.4,3.3s3.4-1.5,3.4-3.3S23.6,21.4,21.7,21.4z M21.7,26.1
		c-0.8,0-1.4-0.6-1.4-1.4c0-0.7,0.6-1.4,1.4-1.4s1.4,0.6,1.4,1.4C23.1,25.5,22.5,26.1,21.7,26.1z"/>
</g>
</svg>
