<?xml version="1.0" encoding="utf-8"?>
<!-- Generator: Adobe Illustrator 18.1.0, SVG Export Plug-In . SVG Version: 6.00 Build 0)  -->
<!DOCTYPE svg PUBLIC "-//W3C//DTD SVG 1.1//EN" "http://www.w3.org/Graphics/SVG/1.1/DTD/svg11.dtd">
<svg version="1.1" id="Layer_1" xmlns="http://www.w3.org/2000/svg" xmlns:xlink="http://www.w3.org/1999/xlink" x="0px" y="0px"
	 viewBox="0 0 22 22" enable-background="new 0 0 22 22" xml:space="preserve">
<path fill="#231F20" d="M3.2,11.5H6c0,2.8,2.3,5,5,5s5-2.3,5-5h2.7h0.8H22V0H0v11.5h2.5H3.2z M14.5,3.3h4.3v3.6h-4.3V3.3z M8.4,11.5
	c0-1.4,1.2-2.6,2.6-2.6c1.4,0,2.6,1.2,2.6,2.6v0c0,1.4-1.2,2.6-2.6,2.6C9.6,14.1,8.4,13,8.4,11.5L8.4,11.5z"/>
<polygon fill="#231F20" points="19.5,19.5 2.5,19.5 2.5,14.6 0,14.6 0,22 22,22 22,14.6 19.5,14.6 "/>
</svg>
