<?xml version="1.0" encoding="utf-8"?>
<!-- Generator: Adobe Illustrator 18.1.0, SVG Export Plug-In . SVG Version: 6.00 Build 0)  -->
<!DOCTYPE svg PUBLIC "-//W3C//DTD SVG 1.1//EN" "http://www.w3.org/Graphics/SVG/1.1/DTD/svg11.dtd">
<svg version="1.1" id="Layer_1" xmlns="http://www.w3.org/2000/svg" xmlns:xlink="http://www.w3.org/1999/xlink" x="0px" y="0px"
	 viewBox="0 0 80 80" enable-background="new 0 0 80 80" xml:space="preserve">
<g>
	<g>
		<path d="M20.4,42.8c-0.7,0.4-1.4,0.7-2.2,0.9c-1.1,0.3-2.1,0.4-3,0.3c-1-0.1-1.8-0.4-2.6-0.8c-0.8-0.4-1.4-1-2-1.7
			c-0.5-0.7-0.9-1.5-1.2-2.5c-0.3-1-0.3-1.9-0.2-2.8c0.1-0.9,0.4-1.7,0.8-2.4c0.4-0.7,1-1.4,1.8-1.9c0.7-0.5,1.6-1,2.7-1.2
			c0.5-0.1,1-0.2,1.5-0.3c0.5,0,1,0,1.4,0c0.4,0,0.8,0.1,1.2,0.3c0.4,0.1,0.7,0.3,1.1,0.5l-0.5,1.5c-0.1,0.2-0.2,0.4-0.4,0.5
			c-0.2,0.1-0.4,0.1-0.7,0c-0.3-0.1-0.5-0.1-0.8-0.2C17,33,16.7,33,16.5,33c-0.2,0-0.5,0-0.7,0c-0.2,0-0.5,0.1-0.8,0.2
			c-0.6,0.1-1,0.4-1.4,0.7c-0.4,0.3-0.7,0.7-0.9,1.1c-0.2,0.4-0.3,0.9-0.4,1.5c0,0.5,0,1.1,0.2,1.7c0.2,0.7,0.4,1.3,0.8,1.7
			c0.3,0.5,0.7,0.9,1.2,1.1c0.4,0.3,0.9,0.4,1.5,0.5c0.5,0.1,1.1,0,1.7-0.1c0.4-0.1,0.7-0.2,0.9-0.4c0.3-0.1,0.5-0.3,0.8-0.5
			l-0.5-1.9L17.4,39c-0.2,0.1-0.3,0-0.5,0c-0.1-0.1-0.2-0.2-0.3-0.3L16.2,37l4.6-1.2l1.4,5.4C21.7,41.8,21.1,42.4,20.4,42.8z"/>
		<path d="M36.4,31.8c0.2,0.9,0.3,1.8,0.2,2.7c-0.1,0.9-0.4,1.7-0.8,2.4c-0.4,0.7-1,1.4-1.7,1.9s-1.6,1-2.6,1.2
			c-1,0.3-1.9,0.3-2.9,0.2c-0.9-0.1-1.7-0.4-2.5-0.8c-0.7-0.4-1.4-1-1.9-1.7c-0.5-0.7-0.9-1.5-1.2-2.5c-0.2-0.9-0.3-1.8-0.2-2.7
			c0.1-0.9,0.4-1.7,0.8-2.4c0.4-0.7,1-1.4,1.7-1.9c0.7-0.6,1.6-1,2.6-1.2c1-0.3,1.9-0.3,2.9-0.2c0.9,0.1,1.7,0.4,2.5,0.8
			s1.4,1,1.9,1.7S36.2,30.9,36.4,31.8z M33.4,32.7C33.2,32,33,31.5,32.7,31c-0.3-0.5-0.7-0.8-1.1-1.1c-0.4-0.3-0.9-0.4-1.3-0.5
			c-0.5-0.1-1,0-1.6,0.1c-0.6,0.2-1.1,0.4-1.5,0.7c-0.4,0.3-0.7,0.7-0.9,1.1c-0.2,0.4-0.3,0.9-0.4,1.5c0,0.6,0,1.1,0.2,1.8
			c0.2,0.6,0.4,1.2,0.7,1.7c0.3,0.5,0.7,0.8,1.1,1.1c0.4,0.3,0.9,0.4,1.3,0.5c0.5,0.1,1,0,1.6-0.1c0.6-0.2,1.1-0.4,1.4-0.7
			s0.7-0.7,0.9-1.1c0.2-0.4,0.3-0.9,0.4-1.5C33.6,33.9,33.5,33.3,33.4,32.7z"/>
		<path d="M51.7,27.8c0.2,0.9,0.3,1.8,0.2,2.7c-0.1,0.9-0.4,1.7-0.8,2.4c-0.4,0.7-1,1.4-1.7,1.9c-0.7,0.6-1.6,1-2.6,1.2
			s-1.9,0.3-2.9,0.2c-0.9-0.1-1.7-0.4-2.5-0.8c-0.7-0.4-1.4-1-1.9-1.7c-0.5-0.7-0.9-1.5-1.2-2.5c-0.2-0.9-0.3-1.8-0.2-2.7
			c0.1-0.9,0.4-1.7,0.8-2.4c0.4-0.7,1-1.4,1.7-1.9c0.7-0.6,1.6-1,2.6-1.2c1-0.3,1.9-0.3,2.9-0.2s1.7,0.4,2.5,0.8
			c0.7,0.4,1.4,1,1.9,1.7C51.1,26,51.5,26.8,51.7,27.8z M48.7,28.6c-0.2-0.6-0.4-1.2-0.7-1.6c-0.3-0.5-0.7-0.8-1.1-1.1
			c-0.4-0.3-0.9-0.4-1.3-0.5c-0.5-0.1-1,0-1.6,0.1c-0.6,0.2-1.1,0.4-1.5,0.7c-0.4,0.3-0.7,0.7-0.9,1.1c-0.2,0.4-0.3,0.9-0.4,1.5
			c0,0.6,0,1.1,0.2,1.8c0.2,0.6,0.4,1.2,0.7,1.7c0.3,0.5,0.7,0.8,1.1,1.1c0.4,0.3,0.9,0.4,1.3,0.5c0.5,0.1,1,0,1.6-0.1
			c0.6-0.2,1.1-0.4,1.4-0.7s0.7-0.7,0.9-1.1c0.2-0.4,0.3-0.9,0.4-1.5C48.9,29.8,48.8,29.2,48.7,28.6z"/>
		<path d="M66.1,23.9c0.2,0.9,0.3,1.8,0.2,2.7c-0.1,0.9-0.4,1.7-0.8,2.4c-0.4,0.7-1,1.4-1.7,1.9c-0.7,0.5-1.6,0.9-2.6,1.2l-5,1.3
			l-3.4-12.8l5-1.3c1-0.3,1.9-0.3,2.8-0.2c0.9,0.1,1.7,0.4,2.5,0.8c0.7,0.4,1.4,1,1.9,1.7C65.4,22.2,65.8,23,66.1,23.9z M63,24.7
			c-0.2-0.6-0.4-1.2-0.7-1.6c-0.3-0.5-0.7-0.8-1.1-1.1c-0.4-0.3-0.9-0.4-1.3-0.5c-0.5-0.1-1,0-1.6,0.1l-2,0.5l2.2,8.2l2-0.5
			c0.6-0.2,1.1-0.4,1.4-0.7c0.4-0.3,0.7-0.7,0.9-1.1c0.2-0.4,0.3-0.9,0.4-1.5C63.3,26,63.2,25.4,63,24.7z"/>
		<circle cx="29.8" cy="33.5" r="2"/>
		<circle cx="45.1" cy="29.4" r="2"/>
	</g>
	<g>
		<path d="M13.7,49.3l2.4-0.6c0.3-0.1,0.5-0.1,0.7,0c0.2,0.1,0.4,0.2,0.5,0.4l4.3,6.2c0.2,0.3,0.4,0.6,0.6,0.9
			c0.2,0.3,0.4,0.7,0.6,1c0-0.4,0-0.8,0-1.2c0-0.4,0-0.7,0.1-1.1l0.6-7.5c0-0.2,0.1-0.4,0.2-0.5c0.1-0.2,0.3-0.3,0.6-0.4l2.4-0.6
			l-1.7,14.2l-2.7,0.7L13.7,49.3z"/>
		<path d="M35,57.3l-3,0.8l-3.4-12.8l3-0.8L35,57.3z"/>
		<path d="M38.5,56.4l-3.4-12.8l4.7-1.3c0.9-0.2,1.7-0.4,2.3-0.4c0.7,0,1.2,0.1,1.7,0.3c0.5,0.2,0.9,0.5,1.1,0.9s0.5,0.8,0.7,1.4
			c0.1,0.3,0.1,0.6,0.1,0.9c0,0.3-0.1,0.6-0.2,0.9c-0.1,0.3-0.3,0.6-0.5,0.8c-0.2,0.3-0.5,0.5-0.9,0.8c0.9,0,1.6,0.1,2.1,0.5
			c0.5,0.4,0.9,0.9,1.1,1.6c0.1,0.5,0.2,1.1,0.1,1.6c-0.1,0.5-0.3,1-0.6,1.5c-0.3,0.5-0.7,0.9-1.3,1.2c-0.5,0.4-1.2,0.6-2,0.8
			L38.5,56.4z M39.5,48.2l1.5-0.4c0.3-0.1,0.6-0.2,0.9-0.3c0.3-0.1,0.5-0.3,0.6-0.4c0.2-0.2,0.3-0.4,0.3-0.6c0-0.2,0-0.5-0.1-0.8
			c-0.1-0.3-0.2-0.5-0.3-0.7c-0.1-0.2-0.3-0.3-0.5-0.4c-0.2-0.1-0.4-0.1-0.7-0.1c-0.3,0-0.6,0.1-0.9,0.2L38.6,45L39.5,48.2z
			 M40,50.2l0.9,3.2l2.1-0.6c0.4-0.1,0.7-0.2,0.9-0.4c0.2-0.2,0.4-0.3,0.5-0.5c0.1-0.2,0.1-0.4,0.1-0.6c0-0.2,0-0.4-0.1-0.6
			c-0.1-0.2-0.1-0.4-0.3-0.6c-0.1-0.2-0.3-0.3-0.4-0.4c-0.2-0.1-0.4-0.1-0.7-0.1c-0.3,0-0.6,0-1,0.1L40,50.2z"/>
		<path d="M65.9,38.1c-0.1,0.2-0.1,0.3-0.2,0.4c-0.1,0.1-0.2,0.2-0.3,0.2c-0.1,0-0.3,0-0.5,0c-0.2,0-0.4-0.1-0.6-0.1
			c-0.2-0.1-0.5-0.1-0.7-0.1c-0.3,0-0.6,0-0.9,0.1c-0.6,0.1-0.9,0.4-1.1,0.7c-0.2,0.3-0.3,0.7-0.2,1.1c0.1,0.3,0.2,0.5,0.4,0.6
			c0.2,0.1,0.5,0.2,0.8,0.3c0.3,0.1,0.6,0.1,1,0.1c0.4,0,0.8,0,1.1,0.1c0.4,0,0.8,0.1,1.2,0.2c0.4,0.1,0.8,0.2,1.1,0.4
			c0.3,0.2,0.6,0.5,0.9,0.8c0.3,0.3,0.5,0.8,0.6,1.3c0.2,0.6,0.2,1.2,0.1,1.7c-0.1,0.6-0.2,1.1-0.5,1.6c-0.3,0.5-0.7,0.9-1.2,1.3
			c-0.5,0.4-1.1,0.7-1.9,0.9c-0.4,0.1-0.8,0.2-1.3,0.2c-0.4,0-0.9,0-1.3,0c-0.4,0-0.8-0.1-1.2-0.2c-0.4-0.1-0.8-0.3-1.1-0.4l0.5-1.6
			c0-0.1,0.1-0.2,0.2-0.3c0.1-0.1,0.2-0.2,0.3-0.2c0.2,0,0.4,0,0.6,0s0.4,0.1,0.7,0.2c0.3,0.1,0.6,0.1,0.9,0.2s0.7,0,1.1-0.1
			c0.5-0.1,0.9-0.4,1.2-0.7c0.2-0.3,0.3-0.7,0.1-1.2c-0.1-0.3-0.2-0.5-0.4-0.7c-0.2-0.1-0.5-0.2-0.8-0.3c-0.3-0.1-0.6-0.1-1-0.1
			c-0.4,0-0.7,0-1.1,0c-0.4,0-0.8-0.1-1.2-0.1c-0.4-0.1-0.7-0.2-1.1-0.4c-0.3-0.2-0.6-0.5-0.9-0.8c-0.3-0.4-0.5-0.8-0.7-1.4
			c-0.1-0.5-0.2-1-0.1-1.5c0.1-0.5,0.2-1,0.5-1.4c0.3-0.5,0.7-0.9,1.2-1.2c0.5-0.4,1.1-0.6,1.8-0.8c0.4-0.1,0.8-0.2,1.2-0.2
			c0.4,0,0.8,0,1.1,0c0.4,0,0.7,0.1,1.1,0.2c0.3,0.1,0.6,0.2,0.9,0.4L65.9,38.1z"/>
		<g>
			<g>
				<path d="M56.1,41c-0.9,0.2-1.5,0.2-1.9,0.1c-0.3-0.1-0.5-0.1-1,0c-0.4,0.1-0.6,0.2-0.8,0.4c-0.3,0.3-0.8,0.6-1.7,0.9
					c-0.9,0.2-1.5,0.2-1.9,0.1c-0.3-0.1-0.5-0.1-1,0l-0.6-2.3c0.9-0.2,1.5-0.2,1.9-0.1c0.3,0.1,0.5,0.1,1,0c0.4-0.1,0.6-0.2,0.8-0.4
					c0.3-0.3,0.8-0.6,1.7-0.9s1.5-0.2,1.9-0.1c0.3,0.1,0.5,0.1,1,0L56.1,41z"/>
			</g>
			<g>
				<path d="M58.7,50.9c-0.9,0.2-1.5,0.2-1.9,0.1c-0.3-0.1-0.5-0.1-1,0c-0.4,0.1-0.6,0.2-0.8,0.4c-0.3,0.3-0.8,0.6-1.7,0.9
					c-0.9,0.2-1.5,0.2-1.9,0.1c-0.3-0.1-0.5-0.1-1,0l-0.6-2.3c0.9-0.2,1.5-0.2,1.9-0.1c0.3,0.1,0.5,0.1,1,0c0.4-0.1,0.6-0.2,0.8-0.4
					c0.3-0.3,0.8-0.6,1.7-0.9s1.5-0.2,1.9-0.1c0.3,0.1,0.5,0.1,1,0L58.7,50.9z"/>
			</g>
			<g>
				<path d="M57.4,46.1c-0.9,0.2-1.5,0.2-1.9,0.1c-0.3-0.1-0.5-0.1-1,0c-0.4,0.1-0.6,0.2-0.8,0.4c-0.3,0.3-0.8,0.6-1.7,0.9
					c-0.9,0.2-1.5,0.2-1.9,0.1c-0.3-0.1-0.5-0.1-1,0l-0.6-2.3c0.9-0.2,1.5-0.2,1.9-0.1c0.3,0.1,0.5,0.1,1,0c0.4-0.1,0.6-0.2,0.8-0.4
					c0.3-0.3,0.8-0.6,1.7-0.9s1.5-0.2,1.9-0.1c0.3,0.1,0.5,0.1,1,0L57.4,46.1z"/>
			</g>
		</g>
	</g>
</g>
<g>
	<path d="M50.4,78.7c-21.3,5.7-43.3-7-49-28.3c-5.7-21.3,7-43.3,28.3-49c21.3-5.7,43.3,7,49,28.3C84.4,51,71.7,73,50.4,78.7z
		 M30.3,3.7c-20,5.4-32,26-26.6,46.1c5.4,20.1,26,32,46.1,26.6c20.1-5.4,32-26,26.6-46.1C71,10.2,50.3-1.7,30.3,3.7z"/>
</g>
</svg>
